<svg width="1891" height="673" viewBox="0 0 1891 673" fill="none" xmlns="http://www.w3.org/2000/svg">
<path d="M630.1 266.204H730.686C745.334 266.204 758.029 267.791 768.771 270.965C779.514 274.139 788.425 278.737 795.505 284.759C802.585 290.7 807.834 297.983 811.252 306.609C814.751 315.236 816.501 324.961 816.501 335.784C816.501 345.957 814.792 355.356 811.374 363.982C807.956 372.609 802.707 380.096 795.627 386.443C788.628 392.71 779.758 397.633 769.016 401.214C758.273 404.713 745.578 406.463 730.93 406.463L668.796 406.341V457H630.1V266.204ZM731.662 372.894C738.986 372.894 745.375 372.039 750.827 370.33C756.361 368.54 760.959 366.058 764.621 362.884C768.365 359.629 771.132 355.722 772.922 351.165C774.794 346.526 775.729 341.399 775.729 335.784C775.729 324.472 772.027 315.683 764.621 309.417C757.297 303.069 746.311 299.896 731.662 299.896H668.796V372.894H731.662ZM834.343 312.957H870.476V333.709C878.451 327.768 886.874 322.641 895.744 318.328C904.615 314.015 913.444 310.719 922.233 308.44L932.854 341.521C918.938 342.905 906.69 346.038 896.11 350.921C885.612 355.722 877.067 362.518 870.476 371.307V457H834.343V312.957ZM931.164 384.979C931.164 374.643 933.239 364.959 937.39 355.926C941.621 346.893 947.603 338.999 955.334 332.244C963.146 325.49 972.546 320.159 983.532 316.253C994.6 312.347 1007.01 310.394 1020.76 310.394C1034.52 310.394 1046.89 312.347 1057.87 316.253C1068.94 320.159 1078.34 325.49 1086.07 332.244C1093.88 338.999 1099.87 346.893 1104.02 355.926C1108.25 364.959 1110.36 374.643 1110.36 384.979C1110.36 395.314 1108.25 404.998 1104.02 414.031C1099.87 423.064 1093.88 430.958 1086.07 437.713C1078.34 444.467 1068.94 449.798 1057.87 453.704C1046.89 457.61 1034.52 459.563 1020.76 459.563C1007.01 459.563 994.6 457.61 983.532 453.704C972.546 449.798 963.146 444.467 955.334 437.713C947.603 430.958 941.621 423.064 937.39 414.031C933.239 404.998 931.164 395.314 931.164 384.979ZM969.128 384.979C969.128 390.757 970.267 396.25 972.546 401.458C974.906 406.585 978.283 411.142 982.678 415.13C987.154 419.036 992.565 422.169 998.913 424.529C1005.34 426.808 1012.63 427.947 1020.76 427.947C1028.9 427.947 1036.14 426.808 1042.49 424.529C1048.92 422.169 1054.33 419.036 1058.73 415.13C1063.2 411.142 1066.58 406.585 1068.86 401.458C1071.22 396.25 1072.4 390.757 1072.4 384.979C1072.4 379.201 1071.22 373.707 1068.86 368.499C1066.58 363.291 1063.2 358.733 1058.73 354.827C1054.33 350.84 1048.92 347.706 1042.49 345.428C1036.14 343.068 1028.9 341.888 1020.76 341.888C1012.63 341.888 1005.34 343.068 998.913 345.428C992.565 347.706 987.154 350.84 982.678 354.827C978.283 358.733 974.906 363.291 972.546 368.499C970.267 373.707 969.128 379.201 969.128 384.979ZM1127.84 312.957H1163.97V325.164C1173 319.63 1181.79 315.805 1190.34 313.689C1198.97 311.492 1207.39 310.394 1215.61 310.394C1227.08 310.394 1237.62 312.225 1247.22 315.887C1256.83 319.549 1265.05 325.083 1271.88 332.488C1277.17 328.419 1282.38 325.001 1287.51 322.234C1292.63 319.386 1297.76 317.107 1302.89 315.398C1308.01 313.608 1313.22 312.347 1318.51 311.614C1323.8 310.8 1329.25 310.394 1334.87 310.394C1346.67 310.394 1357.37 312.021 1366.97 315.276C1376.58 318.45 1384.76 323.211 1391.51 329.559C1398.35 335.906 1403.6 343.841 1407.26 353.362C1411 362.802 1412.87 373.748 1412.87 386.199V457H1376.86V392.059C1376.86 384.165 1375.72 377.125 1373.44 370.94C1371.25 364.674 1368.11 359.425 1364.04 355.193C1360.06 350.88 1355.26 347.625 1349.64 345.428C1344.11 343.149 1338 342.01 1331.33 342.01C1327.67 342.01 1323.92 342.376 1320.1 343.108C1316.27 343.759 1312.53 344.817 1308.87 346.282C1305.29 347.747 1301.91 349.619 1298.74 351.897C1295.56 354.095 1292.8 356.699 1290.44 359.71V457H1254.43V392.059C1254.43 384.165 1253.29 377.125 1251.01 370.94C1248.81 364.674 1245.68 359.425 1241.61 355.193C1237.62 350.88 1232.78 347.625 1227.08 345.428C1221.47 343.149 1215.28 342.01 1208.53 342.01C1204.38 342.01 1200.19 342.457 1195.95 343.353C1191.8 344.166 1187.78 345.346 1183.87 346.893C1180.04 348.439 1176.42 350.311 1173 352.508C1169.67 354.705 1166.66 357.187 1163.97 359.954V457H1127.84V312.957ZM1429.74 384.979C1429.74 374.643 1431.81 364.959 1435.96 355.926C1440.2 346.893 1446.18 338.999 1453.91 332.244C1461.72 325.49 1471.12 320.159 1482.11 316.253C1493.17 312.347 1505.58 310.394 1519.34 310.394C1533.09 310.394 1545.46 312.347 1556.45 316.253C1567.51 320.159 1576.91 325.49 1584.65 332.244C1592.46 338.999 1598.44 346.893 1602.59 355.926C1606.82 364.959 1608.94 374.643 1608.94 384.979C1608.94 395.314 1606.82 404.998 1602.59 414.031C1598.44 423.064 1592.46 430.958 1584.65 437.713C1576.91 444.467 1567.51 449.798 1556.45 453.704C1545.46 457.61 1533.09 459.563 1519.34 459.563C1505.58 459.563 1493.17 457.61 1482.11 453.704C1471.12 449.798 1461.72 444.467 1453.91 437.713C1446.18 430.958 1440.2 423.064 1435.96 414.031C1431.81 404.998 1429.74 395.314 1429.74 384.979ZM1467.7 384.979C1467.7 390.757 1468.84 396.25 1471.12 401.458C1473.48 406.585 1476.86 411.142 1481.25 415.13C1485.73 419.036 1491.14 422.169 1497.49 424.529C1503.92 426.808 1511.2 427.947 1519.34 427.947C1527.48 427.947 1534.72 426.808 1541.07 424.529C1547.5 422.169 1552.91 419.036 1557.3 415.13C1561.78 411.142 1565.15 406.585 1567.43 401.458C1569.79 396.25 1570.97 390.757 1570.97 384.979C1570.97 379.201 1569.79 373.707 1567.43 368.499C1565.15 363.291 1561.78 358.733 1557.3 354.827C1552.91 350.84 1547.5 347.706 1541.07 345.428C1534.72 343.068 1527.48 341.888 1519.34 341.888C1511.2 341.888 1503.92 343.068 1497.49 345.428C1491.14 347.706 1485.73 350.84 1481.25 354.827C1476.86 358.733 1473.48 363.291 1471.12 368.499C1468.84 373.707 1467.7 379.201 1467.7 384.979ZM1605.54 312.835H1647.41L1684.88 399.505L1694.65 423.797L1704.42 399.505L1741.89 312.835H1783.76L1715.52 457H1673.78L1605.54 312.835ZM1808.07 293.304C1804.49 293.304 1801.24 292.815 1798.31 291.839C1795.46 290.781 1793.02 289.397 1790.98 287.688C1788.95 285.898 1787.36 283.864 1786.22 281.585C1785.16 279.225 1784.64 276.743 1784.64 274.139C1784.64 271.453 1785.16 268.971 1786.22 266.692C1787.36 264.332 1788.95 262.298 1790.98 260.589C1793.02 258.88 1795.46 257.537 1798.31 256.561C1801.24 255.503 1804.49 254.974 1808.07 254.974C1811.74 254.974 1814.99 255.503 1817.84 256.561C1820.77 257.537 1823.25 258.88 1825.29 260.589C1827.32 262.298 1828.87 264.332 1829.92 266.692C1831.06 268.971 1831.63 271.453 1831.63 274.139C1831.63 276.743 1831.06 279.225 1829.92 281.585C1828.87 283.864 1827.32 285.898 1825.29 287.688C1823.25 289.397 1820.77 290.781 1817.84 291.839C1814.99 292.815 1811.74 293.304 1808.07 293.304ZM1790.01 312.957H1826.14V457H1790.01V312.957Z" fill="#333333"/>
<path d="M108.025 490.974L216.348 337.465L295.129 473.917L108.025 490.974Z" fill="#FF9D42"/>
<path d="M521.007 248.121L324.055 589.251L127.104 248.121L521.007 248.121Z" fill="#9658D5"/>
<g filter="url(#filter0_d_25_169)">
<path d="M606.29 196.952L409.338 538.082L212.387 196.952L606.29 196.952Z" fill="#9658D5" fill-opacity="0.8" shape-rendering="crispEdges"/>
</g>
<g filter="url(#filter1_d_25_169)">
<path d="M45.484 525.087L153.807 371.578L232.588 508.03L45.484 525.087Z" fill="#FF9D42"/>
</g>
<defs>
<filter id="filter0_d_25_169" x="208.387" y="196.952" width="401.903" height="349.13" filterUnits="userSpaceOnUse" color-interpolation-filters="sRGB">
<feFlood flood-opacity="0" result="BackgroundImageFix"/>
<feColorMatrix in="SourceAlpha" type="matrix" values="0 0 0 0 0 0 0 0 0 0 0 0 0 0 0 0 0 0 127 0" result="hardAlpha"/>
<feOffset dy="4"/>
<feGaussianBlur stdDeviation="2"/>
<feComposite in2="hardAlpha" operator="out"/>
<feColorMatrix type="matrix" values="0 0 0 0 0 0 0 0 0 0 0 0 0 0 0 0 0 0 0.25 0"/>
<feBlend mode="normal" in2="BackgroundImageFix" result="effect1_dropShadow_25_169"/>
<feBlend mode="normal" in="SourceGraphic" in2="effect1_dropShadow_25_169" result="shape"/>
</filter>
<filter id="filter1_d_25_169" x="41.484" y="371.578" width="195.104" height="161.509" filterUnits="userSpaceOnUse" color-interpolation-filters="sRGB">
<feFlood flood-opacity="0" result="BackgroundImageFix"/>
<feColorMatrix in="SourceAlpha" type="matrix" values="0 0 0 0 0 0 0 0 0 0 0 0 0 0 0 0 0 0 127 0" result="hardAlpha"/>
<feOffset dy="4"/>
<feGaussianBlur stdDeviation="2"/>
<feComposite in2="hardAlpha" operator="out"/>
<feColorMatrix type="matrix" values="0 0 0 0 0 0 0 0 0 0 0 0 0 0 0 0 0 0 0.25 0"/>
<feBlend mode="normal" in2="BackgroundImageFix" result="effect1_dropShadow_25_169"/>
<feBlend mode="normal" in="SourceGraphic" in2="effect1_dropShadow_25_169" result="shape"/>
</filter>
</defs>
</svg>
